<svg width="35" height="28" viewBox="0 0 35 28" fill="none" xmlns="http://www.w3.org/2000/svg">
<path d="M5 6.875C5 6.13631 5.14549 5.40486 5.42818 4.72241C5.71086 4.03995 6.12519 3.41985 6.64752 2.89752C7.16985 2.37519 7.78995 1.96086 8.47241 1.67818C9.15486 1.39549 9.88631 1.25 10.625 1.25C11.3637 1.25 12.0951 1.39549 12.7776 1.67818C13.4601 1.96086 14.0801 2.37519 14.6025 2.89752C15.1248 3.41985 15.5391 4.03995 15.8218 4.72241C16.1045 5.40486 16.25 6.13631 16.25 6.875C16.25 8.36684 15.6574 9.79758 14.6025 10.8525C13.5476 11.9074 12.1168 12.5 10.625 12.5C9.13316 12.5 7.70242 11.9074 6.64752 10.8525C5.59263 9.79758 5 8.36684 5 6.875ZM10.625 0C8.80164 0 7.05295 0.724328 5.76364 2.01364C4.47433 3.30295 3.75 5.05164 3.75 6.875C3.75 8.69836 4.47433 10.447 5.76364 11.7364C7.05295 13.0257 8.80164 13.75 10.625 13.75C12.4484 13.75 14.197 13.0257 15.4864 11.7364C16.7757 10.447 17.5 8.69836 17.5 6.875C17.5 5.05164 16.7757 3.30295 15.4864 2.01364C14.197 0.724328 12.4484 0 10.625 0ZM22.5 8.75C22.5 7.75544 22.8951 6.80161 23.5983 6.09835C24.3016 5.39509 25.2554 5 26.25 5C27.2446 5 28.1984 5.39509 28.9017 6.09835C29.6049 6.80161 30 7.75544 30 8.75C30 9.74456 29.6049 10.6984 28.9017 11.4017C28.1984 12.1049 27.2446 12.5 26.25 12.5C25.2554 12.5 24.3016 12.1049 23.5983 11.4017C22.8951 10.6984 22.5 9.74456 22.5 8.75ZM26.25 3.75C24.9239 3.75 23.6521 4.27678 22.7145 5.21447C21.7768 6.15215 21.25 7.42392 21.25 8.75C21.25 10.0761 21.7768 11.3479 22.7145 12.2855C23.6521 13.2232 24.9239 13.75 26.25 13.75C27.5761 13.75 28.8479 13.2232 29.7855 12.2855C30.7232 11.3479 31.25 10.0761 31.25 8.75C31.25 7.42392 30.7232 6.15215 29.7855 5.21447C28.8479 4.27678 27.5761 3.75 26.25 3.75ZM3.75 16.25C2.75544 16.25 1.80161 16.6451 1.09835 17.3483C0.395088 18.0516 0 19.0054 0 20C0 21.395 0.52125 23.2875 2.14875 24.8288C3.78 26.3738 6.45 27.5 10.6237 27.5C14.7975 27.5 17.47 26.375 19.1012 24.8288C20.7288 23.2875 21.25 21.395 21.25 20C21.25 19.0054 20.8549 18.0516 20.1517 17.3483C19.4484 16.6451 18.4946 16.25 17.5 16.25H3.75ZM1.25 20C1.25 19.337 1.51339 18.7011 1.98223 18.2322C2.45107 17.7634 3.08696 17.5 3.75 17.5H17.5C18.163 17.5 18.7989 17.7634 19.2678 18.2322C19.7366 18.7011 20 19.337 20 20C20 21.105 19.5837 22.65 18.2425 23.9212C16.905 25.1887 14.575 26.25 10.625 26.25C6.675 26.25 4.345 25.1875 3.0075 23.9212C1.66625 22.65 1.25 21.105 1.25 20ZM22.4537 23.235C22.2954 23.6117 22.1029 23.9867 21.8762 24.36C23.0337 24.7563 24.4725 25 26.25 25C29.8025 25 32.0012 24.0287 33.3175 22.8C34.62 21.585 35 20.1675 35 19.375C35 18.5462 34.6708 17.7513 34.0847 17.1653C33.4987 16.5792 32.7038 16.25 31.875 16.25H21.6925C22.0275 16.625 22.3137 17.045 22.54 17.5H31.875C32.3723 17.5 32.8492 17.6975 33.2008 18.0492C33.5525 18.4008 33.75 18.8777 33.75 19.375C33.75 19.8337 33.505 20.9163 32.4638 21.8875C31.4375 22.8463 29.5725 23.75 26.25 23.75C24.6812 23.75 23.4375 23.5487 22.4537 23.235Z" fill="#1E1E1E"/>
</svg>
