<svg width="48" height="48" viewBox="0 0 48 48" fill="none" xmlns="http://www.w3.org/2000/svg">
<path d="M42.8801 22.1001L24.5001 40.4801C22.2484 42.7318 19.1945 43.9968 16.0101 43.9968C12.8257 43.9968 9.77178 42.7318 7.52009 40.4801C5.2684 38.2284 4.00342 35.1745 4.00342 31.9901C4.00342 28.8057 5.2684 25.7518 7.52009 23.5001L25.9001 5.12008C27.4012 3.61896 29.4372 2.77563 31.5601 2.77563C33.683 2.77563 35.719 3.61896 37.2201 5.12008C38.7212 6.62121 39.5645 8.65717 39.5645 10.7801C39.5645 12.903 38.7212 14.939 37.2201 16.4401L18.8201 34.8201C18.0695 35.5706 17.0515 35.9923 15.9901 35.9923C14.9286 35.9923 13.9107 35.5706 13.1601 34.8201C12.4095 34.0695 11.9879 33.0515 11.9879 31.9901C11.9879 30.9286 12.4095 29.9106 13.1601 29.1601L30.1401 12.2001" stroke="#1E1E1E" stroke-linecap="round" stroke-linejoin="round"/>
</svg>
