<svg width="38" height="38" viewBox="0 0 38 38" fill="none" xmlns="http://www.w3.org/2000/svg">
<path d="M24.0852 11.6862C23.5476 11.6862 23.0996 11.507 22.7413 11.1486C22.3829 10.7902 22.2037 10.3329 22.2037 9.77664V1.90952C22.2037 1.35326 22.386 0.895939 22.7506 0.537563C23.1152 0.179188 23.5671 0 24.1062 0H35.5119C36.0526 0 36.5013 0.179188 36.8581 0.537563C37.215 0.895939 37.3941 1.35326 37.3957 1.90952V9.77664C37.3957 10.3345 37.2134 10.7918 36.8488 11.1486C36.4842 11.507 36.0323 11.6862 35.4932 11.6862H24.0852ZM1.88147 18.6978C1.34391 18.6978 0.895939 18.5187 0.537563 18.1603C0.179188 17.8019 0 17.3578 0 16.8281V1.86979C0 1.34001 0.182305 0.895939 0.546913 0.537563C0.911521 0.179188 1.36339 0 1.90251 0H13.3082C13.8489 0 14.2976 0.179188 14.6544 0.537563C15.0113 0.895939 15.1904 1.34001 15.192 1.86979V16.8281C15.192 17.3578 15.0097 17.8019 14.6451 18.1603C14.2805 18.5187 13.8286 18.6978 13.2895 18.6978H1.88147ZM24.0852 37.3957C23.5476 37.3957 23.0996 37.2165 22.7413 36.8581C22.3829 36.4998 22.2037 36.0557 22.2037 35.5259V20.5676C22.2037 20.0379 22.386 19.5938 22.7506 19.2354C23.1152 18.877 23.5671 18.6978 24.1062 18.6978H35.5119C36.0526 18.6978 36.5013 18.877 36.8581 19.2354C37.215 19.5938 37.3941 20.0379 37.3957 20.5676V35.5259C37.3957 36.0557 37.2134 36.4998 36.8488 36.8581C36.4842 37.2165 36.0323 37.3957 35.4932 37.3957H24.0852ZM1.88147 37.3957C1.34391 37.3957 0.895939 37.2165 0.537563 36.8581C0.179188 36.4998 0 36.0424 0 35.4862V27.6191C0 27.0628 0.182305 26.6055 0.546913 26.2471C0.911521 25.8887 1.36339 25.7095 1.90251 25.7095H13.3082C13.8489 25.7095 14.2976 25.8887 14.6544 26.2471C15.0113 26.6055 15.1904 27.0628 15.192 27.6191V35.4862C15.192 36.044 15.0097 36.5013 14.6451 36.8581C14.2805 37.2165 13.8286 37.3957 13.2895 37.3957H1.88147Z" fill="#B19BD9"/>
</svg>
