<svg width="38" height="47" viewBox="0 0 38 47" fill="none" xmlns="http://www.w3.org/2000/svg">
<path d="M28.7611 43.1509H30.2172C31.8454 43.1509 33.4069 42.5041 34.5582 41.3528C35.7095 40.2015 36.3562 38.6401 36.3562 37.0119V6.88901C36.3562 5.26084 35.7095 3.69936 34.5582 2.54807C33.4069 1.39679 31.8454 0.75 30.2172 0.75H6.88901C5.53843 0.75 4.28607 1.1871 3.2719 1.92869M3.2719 1.92869L20.4955 10.0346C21.1269 10.3325 21.6606 10.8036 22.0345 11.3932C22.4084 11.9827 22.607 12.6663 22.6073 13.3644V42.4854C22.6075 43.1058 22.451 43.7162 22.1523 44.2599C21.8536 44.8036 21.4225 45.2631 20.8988 45.5957C20.3752 45.9284 19.776 46.1233 19.1568 46.1626C18.5377 46.2018 17.9187 46.084 17.3572 45.8201L2.87901 39.0058C2.24726 38.7078 1.71329 38.2363 1.33937 37.6463C0.965453 37.0563 0.767009 36.3721 0.767189 35.6736M3.2719 1.92869C2.49092 2.4982 1.85545 3.24653 1.41721 4.10806C0.978982 4.96959 0.750374 5.92243 0.75 6.88901V35.6736" stroke="#B19BD9" stroke-width="1.5" stroke-linecap="round" stroke-linejoin="round"/>
</svg>
