<svg width="44" height="49" viewBox="0 0 44 49" fill="none" xmlns="http://www.w3.org/2000/svg">
<path d="M0.75 20.3897C0.75 12.9277 0.75 9.19667 1.632 7.94133C2.51167 6.68833 6.01867 5.48667 13.035 3.08567L14.372 2.62833C18.0283 1.37533 19.8553 0.75 21.75 0.75C23.6447 0.75 25.4717 1.37533 29.128 2.62833L30.465 3.08567C37.4813 5.48667 40.9883 6.68833 41.868 7.94133C42.75 9.19667 42.75 12.93 42.75 20.3897V24.0623C42.75 37.2177 32.859 43.604 26.6523 46.313C24.97 47.048 24.13 47.4167 21.75 47.4167C19.37 47.4167 18.53 47.048 16.8477 46.313C10.641 43.6017 0.75 37.22 0.75 24.0623V20.3897Z" stroke="#B19BD9" stroke-width="1.5"/>
</svg>
